Coordinates

Units are S.I. units (second, meters, Newtons, ...)
If the header above contains a line with 'inDegrees', this indicates whether rotational values are in degrees (yes) or radians (no).

inDegrees=no
nColumns=21
nRows=25
DataType=double
version=3
OpenSimVersion=4.6-2026-03-31-d6972f9e6
endheader
time	/jointset/ground_pelvis/pelvis_tilt/value	/jointset/ground_pelvis/pelvis_list/value	/jointset/ground_pelvis/pelvis_rotation/value	/jointset/ground_pelvis/pelvis_tx/value	/jointset/ground_pelvis/pelvis_ty/value	/jointset/ground_pelvis/pelvis_tz/value	/jointset/hip_r/hip_flexion_r/value	/jointset/hip_r/hip_adduction_r/value	/jointset/hip_r/hip_rotation_r/value	/jointset/walker_knee_r/knee_angle_r/value	/jointset/patellofemoral_r/knee_angle_r_beta/value	/jointset/ankle_r/ankle_angle_r/value	/jointset/subtalar_r/subtalar_angle_r/value	/jointset/hip_l/hip_flexion_l/value	/jointset/hip_l/hip_adduction_l/value	/jointset/hip_l/hip_rotation_l/value	/jointset/walker_knee_l/knee_angle_l/value	/jointset/patellofemoral_l/knee_angle_l_beta/value	/jointset/ankle_l/ankle_angle_l/value	/jointset/subtalar_l/subtalar_angle_l/value
139.996	-0.119120986187859	-0.02766700590290646	-0.006669599632775812	1.152739720000077	0.9225615600000601	-0.2578298100000162	0.1678486953442144	0.04406579160727934	-0.05989093436134664	0.567991422170481	0.5679914200000342	0.2547523011999205	-0.4173496926512985	0.4575415973530129	-0.1000022729194602	0.09479858597194188	1.400491460137713	1.400491460000086	-0.1066480142504248	-0.4786221675147985
140	-0.1220228448532867	-0.02007711863422544	-0.002153623327743694	1.152843981354793	0.9253682158140133	-0.2582977196009265	0.146042121320468	0.03626664622022168	-0.05966546472622904	0.5446750337903679	0.5446750318530218	0.232314964821974	-0.4180863307154021	0.4706026994202854	-0.08741531509170598	0.09560366601581818	1.375427313274703	1.375427313282744	-0.102246010490356	-0.4777640709160287
140.004	-0.1249826955040305	-0.01244926345252068	0.002402527353406819	1.152951769929457	0.9281621602548981	-0.2587711330989214	0.1243942434287428	0.02840864597541795	-0.05964006912734466	0.5215153005822746	0.5215152988764521	0.2097848009721728	-0.4186449248106144	0.4835725109222641	-0.07477037629916627	0.09642134319023936	1.35013798639071	1.350137986549413	-0.09799010705119937	-0.4769279263687132
140.008	-0.1280570811573822	-0.0047498389320258	0.007037351848398579	1.153066593160406	0.9309310861056929	-0.2592553112632888	0.103059729128418	0.02043802994129198	-0.06000854236656822	0.4986652816184398	0.4986652801414434	0.1870744203974621	-0.4188519464793551	0.4963630528911518	-0.06201530337462584	0.09726471281242233	1.324404112893827	1.324404113211959	-0.09401629618311742	-0.4761306135872178
140.012	-0.1312996217554412	0.003046384532366167	0.01178597407374583	1.153191913203159	0.9336634450454587	-0.2597550337748199	0.08218529622122768	0.01231085883312593	-0.06095212292845086	0.4762708977726183	0.476270896521207	0.1641068741175949	-0.4185427580223216	0.5088925625687621	-0.04910918291017047	0.09814769819051553	1.298017652514723	1.298017653002623	-0.09044133338589215	-0.4753790379788772
140.016	-0.1347594257442756	0.01095291338633691	0.01667844337684834	1.153331112156063	0.9363487216495017	-0.2602743738328166	0.06190593462933098	0.003997061847203823	-0.06263332547544506	0.4544675453397207	0.4544675443104413	0.1408198379908651	-0.417565787616114	0.5210875994404244	-0.03602698287765886	0.09908510541050219	1.270786869548525	1.27078687021533	-0.08735532663890171	-0.4746655906461345
140.02	-0.1384793728394545	0.01896903349901491	0.02173808390356816	1.153487445631917	0.9389776083433102	-0.2608164926582984	0.04234139970930442	-0.00451643937817961	-0.06519007637604093	0.4333770768715612	0.433377076060616	0.1171688190787602	-0.4157864112044296	0.532884174798992	-0.02276317805578018	0.1000923354516854	1.24254065314226	1.242540653993017	-0.0848164639860351	-0.4739641696880925
140.024	-0.1424943600465547	0.02707831596469756	0.02697995644092781	1.153663986069517	0.9415420742344888	-0.2613834622328544	0.02359317530669445	-0.01322372323631668	-0.06873036899371518	0.4131053534945321	0.4131053528970927	0.093129432085994	-0.4130904201766707	0.5442279588087107	-0.009334165915217589	0.1011847137252216	1.213132147351001	1.21313214838408	-0.08284807817168557	-0.473227004013253
140.028	-0.1468295608381442	0.0352482436251195	0.03240956068967995	1.153863563641728	0.9440353413755812	-0.2619761290509766	0.005741945895087689	-0.0220991227523785	-0.07332766676465066	0.3937404111504343	0.3937404107594227	0.06869879134217437	-0.4093870930147977	0.555073646197296	0.004220721683685434	0.1023764644779735	1.182441697689654	1.182441698894717	-0.08143810235866981	-0.4723825823694631
140.032	-0.1514987700732379	0.04343096197136069	0.03802190753762549	1.154088710759913	0.9464517899798568	-0.2625940312482565	-0.01115437504182446	-0.03109776833853494	-0.07901726351664505	0.3753512890446967	0.3753512888491701	0.04389607473428218	-0.4046118820145784	0.565383653842954	0.01783968305708783	0.1036794052510341	1.150379169306827	1.150379170663559	-0.08054074973378322	-0.4713349074712832
140.036	-0.1565030446674469	0.05156500058523526	0.04380100096019791	1.154341606977461	0.948786805474766	-0.2632353746041642	-0.02706178063209127	-0.04015729218863539	-0.08579374735494144	0.357987757913506	0.3579877578969184	0.0187624580389513	-0.3987284768067521	0.5751265323340519	0.03144024035017624	0.1051014328681031	1.116885749143541	1.11688575062136	-0.08008000734764495	-0.4699641160277305
140.04	-0.1618297975980157	0.05957774109086916	0.04971972571928048	1.154624019626473	0.9510365852076159	-0.2638970681501968	-0.04197026142048744	-0.04920048036862244	-0.09360965529002478	0.3416811636596091	0.3416811637983778	-0.006639380077488579	-0.3917299528428461	0.5842754185901101	0.04492211627768351	0.1066448856269739	1.081935326669573	1.081935328228468	-0.07995447647486469	-0.4681284625228827
140.044	-0.1674523516714457	0.06738840170020291	0.05574014829149766	1.15493724172699	0.9531979345068362	-0.2645748174176908	-0.05589291944155225	-0.05813861832545283	-0.1023753377398898	0.3264463615175265	0.3264463617803933	-0.03222611875294094	-0.383638899120578	0.5928066602514509	0.05817094260153814	0.10830489080083	1.045535489310663	1.045535490903182	-0.08004316147029945	-0.4656676812323128
140.048	-0.1733299967905375	0.07491129915827204	0.06181422455137231	1.155282031841683	0.9552680748118099	-0.2652632688370603	-0.06886419431400663	-0.06687524904454456	-0.1119599863330744	0.3122845677972084	0.3122845681457325	-0.05789499550087928	-0.3745065273447807	0.6006987632567866	0.07106251845820175	0.1100677910579448	1.007728143784346	1.007728145358583	-0.0802118123781731	-0.4624076168208199
140.052	-0.1794086804875614	0.08205917448646423	0.06788489721598763	1.155658560234051	0.9572444731309528	-0.265956196081012	-0.08093719716150417	-0.07531009051121489	-0.1221937929076932	0.2991869309905907	0.2991869313808002	-0.08352530247763582	-0.3644108100958124	0.6079318809055941	0.08346734661395727	0.1119097235775013	0.9685897467561653	0.9685897482595111	-0.08031938679187502	-0.4581658446419831
140.056	-0.1856223906075066	0.08874643269129634	0.07388757662662439	1.156066365841173	0.9591247004875821	-0.2666467195673569	-0.09218022659704066	-0.0833429232760859	-0.1328712645644129	0.2871385936277097	0.2871385940126837	-0.1089801697133881	-0.353453781121001	0.6144879390499788	0.09525524854317718	0.1137954368619249	0.9282310719267702	0.9282310733100235	-0.08022423828983213	-0.4527579577927764
140.06	-0.1918951386982696	0.09489218843957976	0.07975198300772995	1.156504329184041	0.9609063309126232	-0.2673275498509502	-0.1026727116749873	-0.0908772942985463	-0.1437557140037201	0.276122963364813	0.2761229636978537	-0.1341086602183548	-0.341758166456445	0.6203512894873799	0.1062999024387702	0.1156774415035214	0.8867964000599395	0.8867964012813012	-0.07978977315431118	-0.4460042674695028
140.064	-0.1981433499817699	0.1004230219321024	0.08540428697461674	1.156970666120186	0.96258689236822	-0.2679912438053174	-0.112500929383857	-0.097823891754394	-0.1545848813253848	0.2661258881136562	0.266125888351641	-0.1587481977700604	-0.3294634652178911	0.6255096555042412	0.1164831470457148	0.1174955839069032	0.8444620168198144	0.8444620178481812	-0.07888945960976981	-0.4377367396665474
140.068	-0.2042784280606055	0.1052753694376514	0.0907694583344561	1.157462945515646	0.9641638766024495	-0.2686304622170226	-0.1217538486946195	-0.1041034718460148	-0.1650776010000106	0.2571394714733936	0.2571394715797921	-0.1827273441633922	-0.3167215580254824	0.629955089151553	0.1256989093024876	0.1191771256137248	0.8014339235494647	0.8014339243665198	-0.07741114757331036	-0.4278060020353618
140.072	-0.2102092914283153	0.1093974986064526	0.09577372491772879	1.157978130792687	0.9656348066992591	-0.269238218336595	-0.1305193676241147	-0.1096492586908813	-0.1749414035698653	0.2491653480080275	0.2491653479550898	-0.2058689502239212	-0.3036919618026431	0.6336846999387071	0.1338566438923223	0.1206374039521123	0.7579447058387854	0.7579447064396245	-0.07526065735553594	-0.4160881909002465
140.076	-0.215844782202983	0.1127510356772736	0.1003470371860269	1.158512643370974	0.9669973486564897	-0.2698081068385895	-0.1388810610166854	-0.1144087699827598	-0.1838808755731872	0.2422172917856472	0.2422172915555628	-0.2279936981369079	-0.2905369321023135	0.6367010500935497	0.1408841882281744	0.1217811168520153	0.7142495704707689	0.7142495708630907	-0.07236456297597398	-0.402491299221293
140.08	-0.2210959107646419	0.1153120941345253	0.1044254558671233	1.159062449258634	0.9682494466946791	-0.270334504222165	-0.1469155160018967	-0.1183451084257766	-0.1916065584933705	0.2363229987234635	0.2363229983086675	-0.2489240277293468	-0.2774166378225001	0.6390121821247334	0.1467300266432199	0.1225042333882318	0.6706216016508927	0.6706216018530151	-0.06867207366072182	-0.3869606178837568
140.084	-0.225877854918748	0.1170721751563647	0.1079534224967089	1.159623174681042	0.9693894663429531	-0.2708127366499214	-0.154690425099981	-0.121437882604482	-0.197844199589952	0.2315248439647965	0.2315248433677216	-0.2684884103577537	-0.2644845905077619	0.6406311759999412	0.1513651070250489	0.122696517646582	0.6273462879088014	0.6273462879469662	-0.06415595166164877	-0.3694829268610115
140.088	-0.2301116456136785	0.1180389269097328	0.110885845793886	1.160190251084939	0.9704163290980814	-0.2712392124550695	-0.1622635161104453	-0.1236838589777118	-0.2023441091897861	0.2278795335168035	0.2278795327492666	-0.2865258814523375	-0.2518834845178677	0.6415751957070566	0.1547842756908324	0.1222446414941051	0.5847154405082874	0.5847154404137996	-0.05881251060230294	-0.3500892655732006
140.092	-0.2337255926384976	0.1182365790404527	0.1131898477625572	1.160759077021041	0.9713296136507574	-0.2716115118110214	-0.1696821072491098	-0.125097204636174	-0.2048901979612129	0.2254567808887785	0.2254567799710827	-0.3028906638373068	-0.2397416057557428	0.6418642298275063	0.1570070971905239	0.121035820294376	0.5430207697600177	0.543020769566688	-0.05266085669334339	-0.3288562866946412
